# xmcd
#
# Track frame offsets:
#	150
#	24203
#	47567
#	69687
#	91166
#	112833
#
# Disc length: 1726 seconds
#
# Revision: 0
# Processed by: cddbd v1.5.2PL0 Copyright (c) Steve Scherf et al.
# Submitted via: EZCDAudioConverter 2.0.7.1
#
DISCID=3d06bc06
DTITLE=Espoir 2000 - Série C
DYEAR=1900
DGENRE=
TTITLE0=Série C
TTITLE1=Ingratitude
TTITLE2=Progrès
TTITLE3=Clair de Lune
TTITLE4=Koudougnon
TTITLE5=Regret
EXTD=
EXTT0=
EXTT1=
EXTT2=
EXTT3=
EXTT4=
EXTT5=
PLAYORDER=
